<svg xmlns="http://www.w3.org/2000/svg" viewBox="0 0 96 96" role="img" aria-label="Kolosseum">
  <defs>
    <linearGradient id="bronze" x1="0" y1="0" x2="1" y2="1">
      <stop stop-color="#f6dfac"/>
      <stop offset=".5" stop-color="#c9904e"/>
      <stop offset="1" stop-color="#80502d"/>
    </linearGradient>
    <radialGradient id="stone" cx=".42" cy=".34" r=".76">
      <stop stop-color="#433029"/>
      <stop offset="1" stop-color="#1b1518"/>
    </radialGradient>
  </defs>
  <circle cx="48" cy="48" r="46" fill="url(#stone)" stroke="url(#bronze)" stroke-width="2"/>
  <circle cx="48" cy="48" r="39" fill="none" stroke="#d8ad70" stroke-opacity=".53" stroke-width="1"/>
  <path d="M27 72c-8-7-12-16-11-27M69 72c8-7 12-16 11-27" fill="none" stroke="url(#bronze)" stroke-width="1.6" stroke-linecap="round"/>
  <g fill="#d9ad70">
    <path d="M18 55c-5-2-7-6-7-9 5 0 9 2 10 6M20 47c-4-3-5-7-4-10 5 2 7 5 7 8M23 39c-3-4-3-8-1-11 4 3 6 7 5 10M28 32c-1-5 0-8 3-11 3 5 3 8 1 12M22 61c-4 0-7-2-9-5 5-2 9-1 11 2M26 68c-4 1-8 0-10-3 4-3 8-3 11 0"/>
    <path d="M78 55c5-2 7-6 7-9-5 0-9 2-10 6M76 47c4-3 5-7 4-10-5 2-7 5-7 8M73 39c3-4 3-8 1-11-4 3-6 7-5 10M68 32c1-5 0-8-3-11-3 5-3 8-1 12M74 61c4 0 7-2 9-5-5-2-9-1-11 2M70 68c4 1 8 0 10-3-4-3-8-3-11 0"/>
  </g>
  <path d="M33 33h30v4H33zm-2 32h34v4H31z" fill="url(#bronze)"/>
  <path d="M34 39h28v24H34z" fill="#b47b44" fill-opacity=".24" stroke="#d8ad70" stroke-width="1.3"/>
  <path d="M38 61V48a4 4 0 0 1 8 0v13m4 0V48a4 4 0 0 1 8 0v13" fill="#171215" stroke="#e7bf80" stroke-width="1.4"/>
  <path d="M33 52h30M33 39l5-5h20l5 5" fill="none" stroke="#e7bf80" stroke-width="1"/>
  <path d="M42 24l6-5 6 5M42 76h12" fill="none" stroke="#e7bf80" stroke-width="1.3" stroke-linecap="round"/>
</svg>
